# xmcd
#
# Track frame offsets:
#	150
#	19130
#	37248
#	55694
#	69710
#	86327
#	100891
#	116175
#	134655
#	151312
#	169181
#	183688
#
# Disc length: 2669 seconds
#
# Revision: 1
# Processed by: cddbd v1.5.2PL0 Copyright (c) Steve Scherf et al.
# Submitted via: audiograbber 1.83.01
#
DISCID=ab0a6b0c
DTITLE=Richie Pavledis - Movin' on
DYEAR=1900
DGENRE=
TTITLE0=I'm ready
TTITLE1=Soul purpose
TTITLE2=Movin' on
TTITLE3=Rattle
TTITLE4=Hurricane
TTITLE5=Leave a light on for me
TTITLE6=Enfields of india
TTITLE7=The deep blue sea
TTITLE8=In love
TTITLE9=Armageddon
TTITLE10=The archer
TTITLE11=Freedom calls my name
EXTD=
EXTT0=
EXTT1=
EXTT2=
EXTT3=
EXTT4=
EXTT5=
EXTT6=
EXTT7=
EXTT8=
EXTT9=
EXTT10=
EXTT11=
PLAYORDER=
